/* XPM */
static char *result[] = {
/* columns rows colors chars-per-pixel */
"64 64 5 1 ",
"  c #262B44",
". c #A28426",
"X c #FF9800",
"o c #F6DF75",
"O c None",
/* pixels */
"OOOOOOOOOOOOOOOOOOOOOOOOOOOOOOOOOOOOOOOOOOOOOOOOOOOOOOOOOOOOOOOO",
"OOOOOOOOOOOOOOOOOOOOOOOOOOOOOOOOOOOOOOOOOOOOOOOOOOOOOOOOOOOOOOOO",
"OOOOOOOOOOOOOOOOOOOOOOOOOOOOOOOOOOOOOOOOOOOOOOOOOOOOOOOOOOOOOOOO",
"OOOOOOOOOOOOOOOOOOOOOOOOOOOOOOOOOOOOOOOOOOOOOOOOOOOOOOOOOOOOOOOO",
"OOOOOOOOOOOOOOOOOOOOOOOOOOOOOOOOOOOOOOOOOOOOOOOOOOOOOOOOOOOOOOOO",
"OOOOOOOOOOOOOOOOOOOOOOOOOOOOOOOOOOOOOOOOOOOOOOOOOOOOOOOOOOOOOOOO",
"OOOOOOOOOOOOOOOOOOOOOOOOOOOOOOOOOOOOOOOOOOOOOOOOOOOOOOOOOOOOOOOO",
"OOOOOOOOOOOOOOOOOOOOOOOOOOOOOOOOOOOOOOOOOOOOOOOOOOOOOOOOOOOOOOOO",
"OOOOOOOOOOOOOOOOOOOOOOOOOOOO        OOOOOOOOOOOOOOOOOOOOOOOOOOOO",
"OOOOOOOOOOOOOOOOOOOOOOOOOOOO        OOOOOOOOOOOOOOOOOOOOOOOOOOOO",
"OOOOOOOOOOOOOOOOOOOOOOOOOOOO        OOOOOOOOOOOOOOOOOOOOOOOOOOOO",
"OOOOOOOOOOOOOOOOOOOOOOOOOOOO        OOOOOOOOOOOOOOOOOOOOOOOOOOOO",
"OOOOOOOOOOOOOOOOOOOOOOOO    oooooooo    OOOOOOOOOOOOOOOOOOOOOOOO",
"OOOOOOOOOOOOOOOOOOOOOOOO    oooooooo    OOOOOOOOOOOOOOOOOOOOOOOO",
"OOOOOOOOOOOOOOOOOOOOOOOO    oooooooo    OOOOOOOOOOOOOOOOOOOOOOOO",
"OOOOOOOOOOOOOOOOOOOOOOOO    oooooooo    OOOOOOOOOOOOOOOOOOOOOOOO",
"OOOOOOOOOOOOOOOOOOOO    oooo........XXXX    OOOOOOOOOOOOOOOOOOOO",
"OOOOOOOOOOOOOOOOOOOO    oooo........XXXX    OOOOOOOOOOOOOOOOOOOO",
"OOOOOOOOOOOOOOOOOOOO    oooo........XXXX    OOOOOOOOOOOOOOOOOOOO",
"OOOOOOOOOOOOOOOOOOOO    oooo........XXXX    OOOOOOOOOOOOOOOOOOOO",
"OOOOOOOOOOOOOOOO    XXXX....XXXXXXXXoooo....    OOOOOOOOOOOOOOOO",
"OOOOOOOOOOOOOOOO    XXXX....XXXXXXXXoooo....    OOOOOOOOOOOOOOOO",
"OOOOOOOOOOOOOOOO    XXXX....XXXXXXXXoooo....    OOOOOOOOOOOOOOOO",
"OOOOOOOOOOOOOOOO    XXXX....XXXXXXXXoooo....    OOOOOOOOOOOOOOOO",
"OOOOOOOOOOOO    oooo....XXXXoooo....XXXXooooXXXX    OOOOOOOOOOOO",
"OOOOOOOOOOOO    oooo....XXXXoooo....XXXXooooXXXX    OOOOOOOOOOOO",
"OOOOOOOOOOOO    oooo....XXXXoooo....XXXXooooXXXX    OOOOOOOOOOOO",
"OOOOOOOOOOOO    oooo....XXXXoooo....XXXXooooXXXX    OOOOOOOOOOOO",
"OOOOOOOO    XXXX....XXXXooooXXXXXXXX....XXXXoooo....    OOOOOOOO",
"OOOOOOOO    XXXX....XXXXooooXXXXXXXX....XXXXoooo....    OOOOOOOO",
"OOOOOOOO    XXXX....XXXXooooXXXXXXXX....XXXXoooo....    OOOOOOOO",
"OOOOOOOO    XXXX....XXXXooooXXXXXXXX....XXXXoooo....    OOOOOOOO",
"OOOOOOOO    XXXX....XXXXooooXXXXXXXX....XXXXoooo....    OOOOOOOO",
"OOOOOOOO    XXXX....XXXXooooXXXXXXXX....XXXXoooo....    OOOOOOOO",
"OOOOOOOO    XXXX....XXXXooooXXXXXXXX....XXXXoooo....    OOOOOOOO",
"OOOOOOOO    XXXX....XXXXooooXXXXXXXX....XXXXoooo....    OOOOOOOO",
"OOOOOOOOOOOO    oooo....XXXXoooo....XXXXoooo....    OOOOOOOOOOOO",
"OOOOOOOOOOOO    oooo....XXXXoooo....XXXXoooo....    OOOOOOOOOOOO",
"OOOOOOOOOOOO    oooo....XXXXoooo....XXXXoooo....    OOOOOOOOOOOO",
"OOOOOOOOOOOO    oooo....XXXXoooo....XXXXoooo....    OOOOOOOOOOOO",
"OOOOOOOOOOOOOOOO    XXXX....XXXXXXXXooooXXXX    OOOOOOOOOOOOOOOO",
"OOOOOOOOOOOOOOOO    XXXX....XXXXXXXXooooXXXX    OOOOOOOOOOOOOOOO",
"OOOOOOOOOOOOOOOO    XXXX....XXXXXXXXooooXXXX    OOOOOOOOOOOOOOOO",
"OOOOOOOOOOOOOOOO    XXXX....XXXXXXXXooooXXXX    OOOOOOOOOOOOOOOO",
"OOOOOOOOOOOOOOOOOOOO    XXXX....oooo....    OOOOOOOOOOOOOOOOOOOO",
"OOOOOOOOOOOOOOOOOOOO    XXXX....oooo....    OOOOOOOOOOOOOOOOOOOO",
"OOOOOOOOOOOOOOOOOOOO    XXXX....oooo....    OOOOOOOOOOOOOOOOOOOO",
"OOOOOOOOOOOOOOOOOOOO    XXXX....oooo....    OOOOOOOOOOOOOOOOOOOO",
"OOOOOOOOOOOOOOOOOOOOOOOO    XXXX....    OOOOOOOOOOOOOOOOOOOOOOOO",
"OOOOOOOOOOOOOOOOOOOOOOOO    XXXX....    OOOOOOOOOOOOOOOOOOOOOOOO",
"OOOOOOOOOOOOOOOOOOOOOOOO    XXXX....    OOOOOOOOOOOOOOOOOOOOOOOO",
"OOOOOOOOOOOOOOOOOOOOOOOO    XXXX....    OOOOOOOOOOOOOOOOOOOOOOOO",
"OOOOOOOOOOOOOOOOOOOOOOOOOOOO        OOOOOOOOOOOOOOOOOOOOOOOOOOOO",
"OOOOOOOOOOOOOOOOOOOOOOOOOOOO        OOOOOOOOOOOOOOOOOOOOOOOOOOOO",
"OOOOOOOOOOOOOOOOOOOOOOOOOOOO        OOOOOOOOOOOOOOOOOOOOOOOOOOOO",
"OOOOOOOOOOOOOOOOOOOOOOOOOOOO        OOOOOOOOOOOOOOOOOOOOOOOOOOOO",
"OOOOOOOOOOOOOOOOOOOOOOOOOOOOOOOOOOOOOOOOOOOOOOOOOOOOOOOOOOOOOOOO",
"OOOOOOOOOOOOOOOOOOOOOOOOOOOOOOOOOOOOOOOOOOOOOOOOOOOOOOOOOOOOOOOO",
"OOOOOOOOOOOOOOOOOOOOOOOOOOOOOOOOOOOOOOOOOOOOOOOOOOOOOOOOOOOOOOOO",
"OOOOOOOOOOOOOOOOOOOOOOOOOOOOOOOOOOOOOOOOOOOOOOOOOOOOOOOOOOOOOOOO",
"OOOOOOOOOOOOOOOOOOOOOOOOOOOOOOOOOOOOOOOOOOOOOOOOOOOOOOOOOOOOOOOO",
"OOOOOOOOOOOOOOOOOOOOOOOOOOOOOOOOOOOOOOOOOOOOOOOOOOOOOOOOOOOOOOOO",
"OOOOOOOOOOOOOOOOOOOOOOOOOOOOOOOOOOOOOOOOOOOOOOOOOOOOOOOOOOOOOOOO",
"OOOOOOOOOOOOOOOOOOOOOOOOOOOOOOOOOOOOOOOOOOOOOOOOOOOOOOOOOOOOOOOO"
};
