/* XPM */
static char *result[] = {
/* columns rows colors chars-per-pixel */
"64 64 145 2 ",
"   c #DF3723",
".  c #DF3925",
"X  c #DF3D2A",
"o  c #E03A26",
"O  c #E03C29",
"+  c #E13E30",
"@  c #DE412F",
"#  c #DE4433",
"$  c #DF4936",
"%  c #DD4738",
"&  c #DC4B3D",
"*  c #E1422C",
"=  c #E04B37",
"-  c #E0473B",
";  c #E04B39",
":  c #E35136",
">  c #E3543B",
",  c #E55A3E",
"<  c #DD4E45",
"1  c #DC5245",
"2  c #DB564D",
"3  c #DA594E",
"4  c #DA5B52",
"5  c #DD5F5B",
"6  c #E54644",
"7  c #E54846",
"8  c #E6474A",
"9  c #E54B4A",
"0  c #E55642",
"q  c #E25B43",
"w  c #E7504C",
"e  c #E75C49",
"r  c #E94E57",
"t  c #E45254",
"y  c #E6535B",
"u  c #EA5F58",
"i  c #DC6256",
"p  c #DF6A56",
"a  c #D9635D",
"s  c #DD6B5C",
"d  c #DE725F",
"f  c #E66143",
"g  c #E46248",
"h  c #E76D4E",
"j  c #E86F4E",
"k  c #E9734F",
"l  c #EA6057",
"z  c #E06A57",
"x  c #EA665C",
"c  c #E06B59",
"v  c #EB685E",
"b  c #E97350",
"n  c #E1725E",
"m  c #E25F65",
"M  c #ED5971",
"N  c #D96661",
"B  c #DA6A62",
"V  c #DF7564",
"C  c #DF7966",
"Z  c #E16065",
"A  c #EC6563",
"S  c #E26269",
"D  c #E17663",
"F  c #E07967",
"G  c #E1766B",
"H  c #E07B69",
"J  c #E46572",
"K  c #E16B73",
"L  c #E26C7B",
"P  c #E27077",
"I  c #EC835C",
"U  c #EC8761",
"Y  c #EA8A66",
"T  c #E4836B",
"R  c #EB8C68",
"E  c #ED956D",
"W  c #EF996C",
"Q  c #F09B6E",
"!  c #E7817E",
"~  c #F28F7B",
"^  c #EA9775",
"/  c #EE9D73",
"(  c #F19E71",
")  c #F2917C",
"_  c #F29F79",
"`  c #EEA57C",
"'  c #EFA87E",
"]  c #F2A475",
"[  c #F2A17A",
"{  c #F3AF7E",
"}  c #F4B27F",
"|  c #F16286",
" . c #F26389",
".. c #F46C8F",
"X. c #E87E85",
"o. c #F06B92",
"O. c #F06F98",
"+. c #E97090",
"@. c #EF729D",
"#. c #F1709A",
"$. c #F67B9A",
"%. c #F76EA5",
"&. c #EF74A2",
"*. c #F075A3",
"=. c #F773AE",
"-. c #F979AE",
";. c #F677B2",
":. c #F975B4",
">. c #F67AB5",
",. c #FA7BB1",
"<. c #F77CB9",
"1. c #F87CBD",
"2. c #FD7EC6",
"3. c #FE7ECB",
"4. c #EF9A86",
"5. c #F39484",
"6. c #F4978A",
"7. c #F29A89",
"8. c #F7829E",
"9. c #F1A784",
"0. c #F1AA83",
"q. c #F6A78E",
"w. c #F6A98F",
"e. c #F4B582",
"r. c #F5BB86",
"t. c #F6BE89",
"y. c #F3A095",
"u. c #F6AB91",
"i. c #F8AF97",
"p. c #F7AA98",
"a. c #F8AD9A",
"s. c #F8B09A",
"d. c #F685A3",
"f. c #F885A4",
"g. c #F78CAB",
"h. c #FB8AB5",
"j. c #F881BC",
"k. c #FC8ABC",
"l. c #FD90BF",
"z. c #FD8EC2",
"x. c #FE84CD",
"c. c #FE92C2",
"v. c #FF83D3",
"b. c #FF88D0",
"n. c None",
/* pixels */
"n.n.n.n.n.n.n.n.n.n.n.n.n.n.n.n.n.n.n.n.n.n.n.n.n.n.n.n.t.Q , . n.n.n.n.n.n.n.n.n.n.n.n.n.n.n.n.n.n.n.n.n.n.n.n.n.n.n.n.n.n.n.n.",
"n.n.n.n.n.n.n.n.n.n.n.n.n.n.n.n.n.n.n.n.n.n.n.n.n.n.n.n.Q I > . n.n.n.n.n.n.n.n.n.n.n.n.n.n.n.n.n.n.n.n.n.n.n.n.n.n.n.n.n.n.n.n.",
"n.n.n.n.n.n.n.n.n.n.n.n.n.n.n.n.n.n.n.n.n.n.n.n.n.n.t.] j : * X n.n.n.n.n.n.n.n.n.n.n.n.n.n.n.n.n.n.n.n.n.n.n.n.n.n.n.n.n.n.n.n.",
"n.n.n.n.n.n.n.n.n.n.n.n.n.n.n.n.n.n.n.n.n.n.n.n.n.n.W I :   o X n.n.n.n.n.n.n.n.n.n.n.n.n.n.n.n.n.n.n.n.n.n.n.n.n.n.n.n.n.n.n.n.",
"n.n.n.n.n.n.n.n.n.n.n.n.n.n.n.n.n.n.n.n.n.n.a a a i q : * O O # 3 B n.n.n.n.n.n.n.n.n.n.n.n.n.n.n.n.n.n.n.n.n.n.n.n.n.n.n.n.n.n.",
"n.n.n.n.n.n.n.n.n.n.n.n.n.n.n.n.n.n.n.n.n.n.a a a 3 # . O O @ & 4 a n.n.n.n.n.n.n.n.n.n.n.n.n.n.n.n.n.n.n.n.n.n.n.n.n.n.n.n.n.n.",
"n.n.n.n.n.n.n.n.n.n.n.n.n.n.n.n.n.n.n.n.n.n.a a a 3 # . o @ 1 4 a a n.n.n.n.n.n.n.n.n.n.n.n.n.n.n.n.n.n.n.n.n.n.n.n.n.n.n.n.n.n.",
"n.n.n.n.n.n.n.n.n.n.n.n.n.n.n.n.n.n.n.n.n.n.L L L Z - O . ; Z L L K n.n.n.n.n.n.n.n.n.n.n.n.n.n.n.n.n.n.n.n.n.n.n.n.n.n.n.n.n.n.",
"n.n.n.n.n.n.n.n.n.n.n.n.n.n.O O n.n.n.n.a L &.<.>.o.7   . 9 o.>.>.>.n.n.n.n.o # 4 B n.n.n.n.n.n.n.n.n.n.n.n.n.n.n.n.n.n.n.n.n.n.",
"n.n.n.n.n.n.n.n.n.n.n.n.n.n.o o n.n.n.n.i P d.c.c.$.w . . w $.c.c.l.n.n.n.n.o # 1 4 n.n.n.n.n.n.n.n.n.n.n.n.n.n.n.n.n.n.n.n.n.n.",
"n.n.n.n.n.n.n.n.n.n.n.n.n.n.o o O # 4 a a H 7.i.s.) 0 . . , ) s.a.a.n.n.n.n.O X # & 4 B n.n.n.n.n.n.n.n.n.n.n.n.n.n.n.n.n.n.n.n.",
"n.n.n.n.n.n.n.n.n.n.n.n.n.n.# # X * 1 3 3 s ^ ` ' Y > .   > Y ` ` ] n.n.n.n.o o O # 1 i n.n.n.n.n.n.n.n.n.n.n.n.n.n.n.n.n.n.n.n.",
"n.n.n.n.n.n.n.n.O O n.n.n.n.3 1 @ X @ - # & c H H z = . o = z F C H n.n.n.n.O o O O @ q W r.r.r.n.n.n.n.n.n.n.n.n.n.n.n.n.n.n.n.",
"n.n.n.n.n.n.n.n.. X n.n.n.n.L J y 7 O o o = 4 a a 3 # O O # 3 a 4 2 n.n.n.n.# # X o . , W r.e.r.n.n.n.n.n.n.n.n.n.n.n.n.n.n.n.n.",
"n.n.n.n.n.n.n.n.. . . . n.n.<.>.=.| 6 . o # 4 a a 3 # O o # 4 4 & X n.n.a 5 4 1 @ . . , W r.r.e.n.n.n.n.n.n.n.n.n.n.n.n.n.n.n.n.",
"n.n.n.n.n.n.n.n., : *   n.n.h.c.c.$.w o o @ 1 a K Z ; . o # 1 3 q , n.n.F H C s = . . > Y ` ( ^ n.n.n.n.n.n.n.n.n.n.n.n.n.n.n.n.",
"n.n.n.n.n.n.n.n.( I =     e ) s.s.) 0 . . X X t #.o.9 . X X X q I Q n.n.` ` ` Y > . . = s n f > n.n.n.n.n.n.n.n.n.n.n.n.n.n.n.n.",
"n.n.n.n.n.n.n.n.t.] b : X , Q r.t.Q , . . * : l .. .9 o o * = k ] t.n.n.p.s.s.) 0 . . $ 4 3 #   n.n.n.n.n.n.n.n.n.n.n.n.n.n.n.n.",
"n.n.n.n.n.n.n.n.e.e.] I = , W r.t.W , . o : I Y u 6 * . . : I ] e.t.n.n.l.l.c.$.w . . # 4 3 #   n.n.n.n.n.n.n.n.n.n.n.n.n.n.n.n.",
"n.n.n.n.n.n.n.n.` ' ' Y : 0 ~ w.] I > . o e ) 6.A 6 + . . > Y { ` ` n.n.>.>.>...9 . O * 1 3 q q n.n.n.n.n.n.n.n.n.n.n.n.n.n.n.n.",
"n.n.n.n.n.n.n.n.F H H p = 9 $.d.v : * . . w $.z.,. .7 . o ; s C C V n.n.L L L Z ; . o X @ 0 I ] { r.n.n.n.n.O O n.n.n.n.n.n.n.n.",
"n.n.n.n.n.n.n.n.2 4 5 3 # 7  ...9 X X . . 7 o.<.<.o.9 o . # 2 a a a n.n.3 4 a 3 # o . * = k ] t.r.{ n.n.n.n.o O n.n.n.n.n.n.n.n.",
"n.n.n.n.n.n.n.n.@ & 4 3 # + 7 9 3 1 # o o % m L L Z - O o # 4 N a a n.n.@ & 4 4 # . . > I ] e.r.r.( f o o O o o n.n.n.n.n.n.n.n.",
"n.n.n.n.n.n.n.n., q 3 1 # + - y J S - . o $ p C C p $ . . = c C C F n.n., q 3 1 # . . > Y ' ' [ ( I > o . X # # n.n.n.n.n.n.n.n.",
"n.n.n.n.n.n.n.n.Q I q X . 6 | =.>.o.9 . o : U ` ` Y > . . > R [ ' ` n.n.Q I q # X o o = c H H n g : * . . # 1 4 n.n.n.n.O O n.n.",
"n.n.n.n.n.n.n.n.t.] b = @ 9 $.c.c.$.w     , W t.t.W , . . > I ] e.e.n.n.t.Q , . . o O # 1 4 a 4 # . o O @ < 4 N n.n.n.n.X O n.n.",
"n.n.n.n.n.n.n.n.r.e.] I $ 0 ~ i.s.) 0     , W t.t.Q >   o O > b [ t.n.n.t.W ,   o O O O X & 4 4 # . o # 1 4 5 a n.n.B 3 # O n.n.",
"n.n.n.n.n.n.n.n.` ` { Y > 0 ~ i.i.) 0   o q ) s.i.5.A - O   o > I Q n.n.p.5.A 6 O . X * > q 4 1 # o o = s C H G n.n.4 1 @ X n.n.",
"O O n.n.n.n.n.n.V C H z $ 9 $.c.c.$.w     w $.l.c.h.-.| 6   . * : , n.n.c.h.,. .7 . . : I U q + X . . > Y ` ` ^ C 4 & * X # 3 a ",
"O O n.n.n.n.n.n.a a a 3 # 7 o.<.>.o.7   . 7 o.>.>.1.x.:.M - O . .   n.n.>.>.>.o.9 . . , ( / ,   . . o q ( r.r.` H 2 # o o # i a ",
"O O o o n.n.n.n.a a a 3 # - m L L Z & o . = Z L L +.1.x.:. .7 . . . n.n.L L P S - . . , / Q ,   . . o , Q r.e.` H 3 # o O # 4 a ",
"O O O X n.n.n.n.5 a N 4 # - u L L Z - o o # 3 a a K d.l.c.$.w o . X n.n.L L L Z - . . , Q ] b > O . . , W r.r.` H 4 # o o = 4 a ",
"O O O o n.n.o % 4 a a 3 $ 7 o.>.1.+.7 . . # 4 a N C 4.i.i.) 0 . . . n.n.>.>.>.o.9 .   , Q } ] I > . . , W r.r.` G 4 # o o # 4 B ",
"o O o X n.n.o # 4 B a 3 @ 7 o.>.j...7 . . # 1 4 5 G 4.s.a.~ q . X . n.n.>.<.<.o.9   . , Q t.t.Q ,     , W r.r.` d < # . . # 3 a ",
"o o o X O o o # 4 a a 3 $ # m L L x # . . @ @ > 4 P d.c.c.$.w o . o n.n.L L L Z - .   , Q t.t.Q ,     , W t.t./ f X X . . # 3 a ",
"$ @ X O O . . - z H H z = - m L L N y 6 @ . . @ 1 N @.>.>...7 o . @ n.n.C C C p $ . . > Y ' ' Y > . . > Y ` ] I >   . + 7 y J P ",
"4 1 # O O o . > Y { ' U : 7 o.>.<.:.=. .6 . . X # < m L L Z = o o # 3 C ^ ` ' Y > . . = c H H z % o . - c n g = * . . 6  .=.;.>.",
"a 4 & # X . . , Q t.t.W , 9 $.l.z.z.c.d.v : * . . - 5 +.L Z % o o # 3 C ' e.] I > . . # 1 4 a 4 # o o # 1 1 % + X @ : A d.c.b.v.",
"a a 4 1 # o . , W r.t.W > 0 ) a.i.p.a.u.[ I :   o 9 o.>.1.o.7   . # 3 C 0.] b : * . o X @ & 4 4 # o o X # & 1 < @ : I _ u.a.n.n.",
"D H H c % . . > R ' ' Y > > U ` ` ] ` ` ' Y >     9 o.1.>.o.7   o & p T E I : . . O @ $ > q 3 1 # O O o . $ c c $ : Y ' ` ] n.n.",
"` ` ' Y > . . - z H H p = # c H C V C F F p $ . . - Z X.L m -     > R W h = O o o X 1 s Y I q @ X o O . o > R R > $ p H H V a a ",
"e.r.r.Q , . . # 4 a a 2 # # 1 4 a a a N K m - o o @ 1 4 B m - o   , ( ( ,   o O # < m X.y.) q . . X . * : b ] Q , # 3 a a a a a ",
"r.r.r./ , . . # 4 a a 3 # X X & 4 a a J *.o.9 . o O X t O.O.r o o q ( Q , . o # 1 J #.j.z.$.7   . X . > I ] e.Q , # 3 a a a a a ",
"` ` [ R > . . ; c H H z = . o # 1 a d ! g.$.9 . O * = u o. .8 o o > R R >   o % p P g.c.c.8.v : * . . > Y 0.9.Y > @ 1 i V D V a ",
"G C C p ; . . > R 0.' Y : o . X # q R 0.i.) q   . > I Y l 7 + . . = c c ; . . > Y 0.q.p.p.q.` I : . . = s H H z = . # q R _ n.n.",
"a a a 3 # . . > I ] e.] k : * . . 0 ) s.s.) 0   . , ( ] b = O . o # 3 4 # . . , Q t.r.r.r.} ` I > . . # 3 a a 3 #   o , W t.n.n.",
"a a a 2 # . . * = b ] e.] I : . . 9 $.c.c.$.w .   , ( e.] I > . . # 4 4 # . . , Q t.t.r.r.] k : * . . + 2 a a 4 # .   > Q r.n.n.",
"C V H n g : O . . : I ( ' R > o o 9 o.<.<.o.7 . . > Y ' { R > . . ; c c ; X . > Y ` ` ] W I :   . @ : g n H H c ; O 7 A 5.a.n.n.",
"` ` ` ` / I : . . * : g D s = o . - m L L S - . . ; z H C s ; o o , R R > . . ; c C H d g : O o   : I ( ] ` ' E > 7 | >.h.z.x.v.",
"p.q._ ( u.6.A 6 O .   # 3 4 # o o # 3 a a 3 # o O # 4 a a 3 # o o , ( ( q . . # 4 a a 2 # . o * = b ] t.r.e.] b = 9 o.>.>.:.>.;.",
"z.8.x x d.k.,. .7 . . # 4 4 # o o # 4 a a 3 # o o # 3 a a 3 # . o , ( ( q o . # 2 a a 2 # . . > I ] e.r.t.] k = * - m L L K L L ",
"v.%.8 6  .-.<.o.9 o . = c c ; . o = s C H z = . . = c C H c - . . > R R > o . = c C F z - . . > Y ' ` ` ( I :   o = p V C V s i ",
"n.n.n.n.7 y J S - . o , Y R ,   . > Y ' ' Y >   . > Y ' ` Y > . . ; c c ; . . > R ' ' Y > . . ; z H C V e > * .   > Y ` ` ^ n.n.",
"n.n.n.n.r 9 2 1 # . . , ( ( , . . , W t.r.Q , . . , ( t.r.Q , . . # 3 4 # . . 0 W t.t.Q , . . # 3 a 5 3 #   . @ = j ] t.r.r.n.n.",
"n.n.v.2.:. .9 X X . . q ( ( , . . , W t.t.Q , . . , Q r.t.Q , . . % 3 4 # X . , Q r.t.Q ,   o # 3 a a 3 # . . > I ] } e.r.r.n.n.",
"n.n.x.x.z.d.v : * . . > R R > . . > Y 0.[ Y > . . > Y ' ' R > . . ; c c ; . . > Y ' ' Y > .   - c H H c # . . > Y { ` ` ` ` n.n.",
"n.n.n.n.p.q._ I >   X ; c c ; . . = c C C c = . . ; c H H z =   . > Y R , o o - s F H s = o o > Y ' ' Y > . . ; c H H F H C n.n.",
"n.n.n.n.e.r.t.W , . . # 3 3 # o o # 2 a N 4 # o o # 2 a a 3 # o o q ( ( , o   # 2 N a 2 #   o q Q t.t.Q q . . # 2 a a 5 4 2 n.n.",
"n.n.n.n.r.r.r.( , . . # 3 4 % o o # 3 a a 2 # o o # 2 a a 3 # o o q ( ( , . . # 3 a a 4 # . . , Q t.r.Q , o . # 3 a N 4 & # n.n.",
"n.n.n.n.^ ' ' R > . . ; c c - o . - z H C s ; o . = z H H s & . . > R R > . . = c H C p = . . > Y ' ' Y > o . ; c V a 1 # o n.n.",
"n.n.o ; c H H c ; . . > R R > .   ; R ' ` Y > . . > Y ' [ R > . o = c z ; o . > R [ 0.Y : o o = z H H z ; . . , R E q # n.n.n.n.",
"n.n.o # 1 4 a 4 % . . , Q ] f .   , ( r.r.] f   . , Q r.r.Q , . o & 4 4 # X o q ( r.t.W , o o - 4 a a 4 # . . > I U ,   n.n.n.n.",
"n.n.n.n.# & 4 a n.n.. 0 Q e.n.n.  , W r.r.{ n.n.  , W r.r.Q ,   n.n.a 4 # o n.n.e.r.r.W ,   n.n.a a a a n.n.. * > , n.n.n.n.n.n.",
"n.n.n.n.o # 3 N n.n.. , W t.n.n.  , W r.e.r.n.n.  0 W r.r.E , o n.n.a 4 # o n.n.e.r.e.E ,   n.n.a a a a n.n.O o . . n.n.n.n.n.n."
};
