/* XPM */
static char *result[] = {
/* columns rows colors chars-per-pixel */
"64 64 98 2 ",
"   c #2F0404",
".  c #340B0B",
"X  c #380B0B",
"o  c #211414",
"O  c #2A1616",
"+  c #301616",
"@  c #3E1818",
"#  c #430D0D",
"$  c #560D0D",
"%  c #580D0D",
"&  c #451414",
"*  c #4C1515",
"=  c #451A1A",
"-  c #4C1A1A",
";  c #561616",
":  c #5C1717",
">  c #531919",
",  c #5B1818",
"<  c #610707",
"1  c #7F0F0F",
"2  c #641616",
"3  c #6B1515",
"4  c #621919",
"5  c #6A1818",
"6  c #731515",
"7  c #7B1414",
"8  c #741818",
"9  c #7A1818",
"0  c #4F2020",
"q  c #4D2828",
"w  c #542828",
"e  c #5B2F2F",
"r  c #4B3E3E",
"t  c #5D3030",
"y  c #503D3D",
"u  c #5F3B3B",
"i  c #613434",
"p  c #613B3B",
"a  c #524F4F",
"s  c #6C4444",
"d  c #724D4D",
"f  c #7D7070",
"g  c #830F0F",
"h  c #8E0F0F",
"j  c #940F0F",
"k  c #841313",
"l  c #8B1313",
"z  c #861919",
"x  c #8B1919",
"c  c #931212",
"v  c #9B1212",
"b  c #9A1818",
"n  c #A41212",
"m  c #AD1212",
"M  c #A21818",
"N  c #AA1818",
"B  c #B41313",
"V  c #BC1313",
"C  c #BD1818",
"Z  c #C41414",
"A  c #CD1414",
"S  c #D31515",
"D  c #DB1515",
"F  c #D51C1C",
"G  c #E31616",
"H  c #EC1717",
"J  c #E61F1F",
"K  c #EC1B1B",
"L  c #F21717",
"P  c #F31B1B",
"I  c #E72828",
"U  c #E82F2F",
"Y  c #F42323",
"T  c #F82222",
"R  c #F52B2B",
"E  c #F82C2C",
"W  c #E83232",
"Q  c #F73131",
"!  c #F93636",
"~  c #F33838",
"^  c #FA3D3D",
"/  c #876464",
"(  c #816D6D",
")  c #8B6A6A",
"_  c #937272",
"`  c #947A7A",
"'  c #F64545",
"]  c #FB4242",
"[  c #FD4C4C",
"{  c #FE5353",
"}  c #9E8C8C",
"|  c #9C9999",
" . c #A28686",
".. c #A28B8B",
"X. c #BDAAAA",
"o. c #C3B0B0",
"O. c #CDC3C3",
"+. c None",
/* pixels */
"+.+.+.+.+.+.+.+.+.+.+.+.+.+.+.+.+.+.+.+.+.+.+.+.+.+.+.+.+.+.+.+.+.+.+.+.+.+.+.+.+.+.+.+.+.+.+.+.+.+.+.+.+.+.+.+.+.+.+.+.+.+.+.+.",
"+.+.+.+.+.+.+.+.+.+.+.+.+.+.+.+.+.+.+.+.+.+.+.+.+.+.+.+.+.+.+.+.+.+.+.+.+.+.+.+.+.+.+.+.+.+.+.+.+.+.+.+.+.+.+.+.+.+.+.+.+.+.+.+.",
"+.+.+.+.+.+.+.+.+.+.+.+.+.+.+.+.+.+.+.+.+.+.+.+.+.+.+.+.+.+.+.+.+.+.+.+.+.+.+.+.+.+.+.+.+.+.+.+.+.+.+.+.+.+.+.+.+.+.+.+.+.+.+.+.",
"+.+.+.+.+.+.+.+.+.+.+.+.+.+.+.+.+.+.+.+.+.+.+.+.+.+.+.+.+.+.+.+.+.+.+.+.+.+.+.+.+.+.+.+.+.+.+.+.+.+.+.+.+.+.+.+.+.+.+.+.+.+.+.+.",
"+.+.+.+.+.+.+.+.+.+.+.+.+.+.+.+.+.+.+.+.+.+.+.+.+.+.+.+.+.+.+.+.+.+.+.+.+.+.+.+.+.+.+.+.+.+.+.+.+.+.+.+.+.+.+.+.+.+.+.+.+.+.+.+.",
"+.+.+.+.+.+.+.+.+.+.+.+.+.+.+.+.+.+.+.+.+.+.+.+.+.+.+.+.+.+.+.+.+.+.+.+.+.+.+.+.+.+.+.+.+.+.+.+.+.+.+.+.+.+.+.+.+.+.+.+.+.+.+.+.",
"+.+.+.+.+.+.+.+.+.+.+.+.+.+.+.+.+.+.+.+.+.+.+.+.+.+.+.+.+.+.+.+.+.+.+.+.+.+.+.+.+.+.+.+.+.+.+.+.+.+.+.+.+.+.+.+.+.+.+.+.+.+.+.+.",
"+.+.+.+.+.+.+.+.+.+.- - - +.+.+.- - - +.+.+.+.+.+.+.+.+.+.+.+.+.+.+.+.+.+.+.+.+.+.+.+.+.+.- - - +.+.+.- - - +.+.+.+.+.+.+.+.+.+.",
"+.+.+.+.+.+.+.+.+., , , , +.+.+., 4 , , +.+.+.+.+.+.+.+.+.+.+.+.+.+.+.+.+.+.+.+.+.+.+.+., , , , +.+.+., 4 , , +.+.+.+.+.+.+.+.+.",
"+.+.+.+.+.+.+.+.> 5 9 9 9 , , 2 7 9 7 5 > +.+.+.+.+.+.+.+.+.+.+.+.+.+.+.+.+.+.+.+.+.+.> 5 9 9 7 2 > 4 9 7 9 5 > +.+.+.+.+.+.+.+.",
"+.+.+.+.+.+.+.- , 9 v v z 2 , 5 x v c 7 , - = * * +.+.+.+.+.+.+.+.+.+.+.+.+.+.* * & - , 7 c v x 8 , 2 z v b 9 , - +.+.+.+.+.+.+.",
"+.+.+.+.+.+.> ; 5 x m B b 5 , 8 b B n 9 , 0 w t i i +.+.+.+.+.+.+.+.+.+.+.+.i i t w 0 , 9 N B b 5 , 5 c B N x 5 > > +.+.+.+.+.+.",
"+.+.+.+.+.: 2 8 z M V Z v 5 > 9 n Z B k , t d ) _ / s +.+.+.+.+.+.+.+.+.+.s / _ ) d t , k m Z M 9 , 5 v Z V n z 8 2 , +.+.+.+.+.",
"+.+.+.+.- , 8 x n V S A b 8 > 9 N A B z , s ` X.o. .d > +.+.+.+.+.+.+.+.> d  .o.X.` s 4 z B A N 9 > 8 b A A V n l 8 4 - +.+.+.+.",
"+.+.+.= - 2 7 n B S D F N 9 5 z C F V l w s ..O.O...s - # +.+.+.+.+.+.# - d ..O.O.} s 2 l V S C z 2 9 N S D A V v k 4 - = +.+.+.",
"+.+.+.= - 4 k n V S D D C b x M Z D V x 2 p f | | ( p 0 & +.+.+.+.+.+.& - p ( | | f u w l V D Z M x b C D G S V M k 2 - = +.+.+.",
"+.+.+.= > 2 9 n V S D G S Z V Z D F V x , q r a a y q - * +.+.+.+.+.+.* * q y a a a q 4 x C D D Z C C F G D S V n g 4 - = +.+.+.",
"+.+.+.= - 4 k n V A D G G D D D K G C x , = O o o + = * - +.+.+.+.+.+.- - = + o o O @ , x C D G J D D D G D A V n k 2 - - +.+.+.",
"+.+.+.= - 4 9 n Z A D G H H H H H G C x : @ .     X & = - +.+.+.+.+.+.- - & X       & , x Z G H H G H H G D S V n 9 2 - = +.+.+.",
"+.+.+.= > 4 k n V S D H H G H H H G C x : ; % % < % * - = = = = = = = = = * $ < % $ * , x C G H H H H H G D S V n k 2 - = +.+.+.",
"+.+.+.- - 2 9 n V A D G G H G H K D V x 2 : 6 c c 7 2 - - - - > > > - - > , 7 j j 7 : : x V D K H G H H G D A V n 9 4 > = +.+.+.",
"+.+.+.+.- 2 8 c n V A D G G G G D A N 9 , ; 7 v v c 8 3 2 2 2 3 2 2 2 4 3 8 x n j 7 , , 9 N A D G G G G D A V m c 7 : - +.+.+.+.",
"+.+.+.+.+., 3 8 l n V S D H G S Z B l 3 ; ; 8 l c c x x x c x x x x x c x c v j h 8 , > 3 l B Z D G G D S Z M x 8 3 , +.+.+.+.+.",
"+.+.+.+.+.+.> : 3 h B A S D D A m c 7 2 > ; 2 1 c n B B V V B B B B B C B m n h 7 3 ; > 2 7 j m A D G S Z m z 3 , > +.+.+.+.+.+.",
"+.+.+.+.+.+.= - , k n Z S D S Z n g 6 3 2 5 8 l v B Z S D F F F F F F S A Z m v h 6 3 2 3 6 g n Z S D S Z n 9 4 - = +.+.+.+.+.+.",
"+.+.+.+.+.+.= = , 9 n Z A S A V j g 1 7 k c v m V Z D G J I W W W U I J G D Z V m j c z 1 1 g c V A S A Z n k , = = +.+.+.+.+.+.",
"+.+.+.+.+.+.= - : z n V A A Z m j g g j m V Z S D G G H I ~ ' ' ' ' ~ R H H G D A A V m c h g j m Z A A V n k , - = +.+.+.+.+.+.",
"+.+.+.+.+.+.+.- 4 9 b B B V B n j j j B Z S G H L L L Y Q ] { { { { ] Q Y L L L H G S A m j h j n B V V B b 9 , - +.+.+.+.+.+.+.",
"+.+.+.+.+.+.+.- , 8 z c v v n n n v m Z D G H L P T E Q ^ [ { { { { [ ^ ! E T P L H G S Z m n j v n n j c z 8 , - +.+.+.+.+.+.+.",
"+.+.+.+.+.+.+.+.+.4 5 3 7 l j n m B Z S G H L L Y E ^ ] [ { { { { { [ [ ] ^ E P L L H G A V m n v j g 7 3 5 4 +.+.+.+.+.+.+.+.+.",
"+.+.+.+.+.+.+.+.+.+.> > : 3 g j m Z S G H L L L P E ] [ [ { [ { { { [ { [ ^ Q Y L L L H D A V n j g 6 2 > > +.+.+.+.+.+.+.+.+.+.",
"+.+.+.+.+.+.+.+.+.+.= - ; 2 6 h m A D H L L L L Y E ! ] [ [ { { { { [ [ ] ^ E P L L L L H S V n h 6 2 ; - = +.+.+.+.+.+.+.+.+.+.",
"+.+.+.+.+.+.+.+.+.+.+.+.* ; 2 k n Z D H L L L L L Y E Q ^ [ { { { { [ ^ E R P P L L L L G S Z n 9 3 ; * +.+.+.+.+.+.+.+.+.+.+.+.",
"+.+.+.+.+.+.+.+.+.+.+.+.+.- , 8 n Z D G H L L L L L L Y E ] [ { { [ ' E Y L L L L L L H G S Z n 8 ; - +.+.+.+.+.+.+.+.+.+.+.+.+.",
"+.+.+.+.+.+.+.+.+.+.+.+.+.= > 8 v V A D G H H L L L H L E ! ] ] ] ] ! E P L L L L H L G G A Z j 8 > - +.+.+.+.+.+.+.+.+.+.+.+.+.",
"+.+.+.+.+.+.+.+.+.+.+.+.+.= > 8 b B A S D G H H L L L L P R E E Q Q E P L L L L L L D D A A V j 8 > = +.+.+.+.+.+.+.+.+.+.+.+.+.",
"+.+.+.+.+.+.+.+.+.+.+.+.+.- > 5 x m V A A S G H L L L L L L L P P P P P L L L L L D S A Z V B l 3 > = +.+.+.+.+.+.+.+.+.+.+.+.+.",
"+.+.+.+.+.+.+.+.+.+.+.+.+.- > 2 k n m V Z S D G K H L L L L L L P L L L L H H H G D A Z V m n k 3 > - +.+.+.+.+.+.+.+.+.+.+.+.+.",
"+.+.+.+.+.+.+.+.+.+.+.+.+.= * 2 1 j n m V Z A D G H H P L L L L L L L L P H K G S S A V m n j 7 , > = +.+.+.+.+.+.+.+.+.+.+.+.+.",
"+.+.+.+.+.+.+.+.+.+.+.+.+.- > 2 6 g j n B V Z A S G H L L L L L L L P L L H G S A Z V B n j g 6 : > - +.+.+.+.+.+.+.+.+.+.+.+.+.",
"+.+.+.+.+.+.+.+.+.+.+.+.+.> ; 2 6 g h v n B V Z A D G H H H H H H H H H H G D A Z V m n v j g 6 3 ; > +.+.+.+.+.+.+.+.+.+.+.+.+.",
"+.+.+.+.+.+.+.+.+.+.+.> , 3 8 7 1 h h j v n m V Z A D G G G G G G G G G D D S A V m n j j h h 7 7 8 3 : > +.+.+.+.+.+.+.+.+.+.+.",
"+.+.+.+.+.+.+.+.+.+.- > 2 7 k c h j j h h j n m V A A S S S S S D S D S S A A V m n j j h h j c l k 7 2 > = +.+.+.+.+.+.+.+.+.+.",
"+.+.+.+.+.+.+.+.+.- > : 8 k c j j h l 1 g g j n m V Z Z A Z Z Z Z Z Z Z Z Z B m n j g g 1 h l j j j k 8 , > > +.+.+.+.+.+.+.+.+.",
"+.+.+.+.+.+.+.+.> 2 2 6 7 j j j l 7 6 3 < 6 g j v n m m m m m m m m B m m m n n j g 6 3 3 6 9 l v j c k 8 2 2 ; +.+.+.+.+.+.+.+.",
"+.+.+.+.+.+.+.- > 3 9 l c v v l 8 2 : ; : 2 6 g h j j j j j j j j j j j j j h h g 1 2 ; ; : 2 7 l j c c k 7 2 ; - +.+.+.+.+.+.+.",
"+.+.+.+.+.+.+.- , 3 k c c j c 7 3 ; - > ; 2 6 1 g g 1 g g 1 g 1 1 1 1 g g 1 g g 1 < : ; ; - > 2 7 j c j c k 3 > - +.+.+.+.+.+.+.",
"+.+.+.+.+.+.+.- ; 3 6 7 k k 9 3 ; - * ; : 3 6 g g 1 6 6 < 3 3 3 3 3 3 < 3 6 1 g 1 1 3 2 ; * - : 3 9 k k 9 7 3 , - +.+.+.+.+.+.+.",
"+.+.+.+.+.+.+.+.+.2 4 2 3 2 2 , > - ; 2 7 k l j h 7 2 : ; : : ; : ; : ; : 2 6 h j l k 7 2 > - > : 2 2 3 3 4 : +.+.+.+.+.+.+.+.+.",
"+.+.+.+.+.+.+.+.+.+.> > > > > - - > 2 8 l j j j k 6 : > - - > > > - > - > 2 6 l j j c l 7 2 > - > > - > - > +.+.+.+.+.+.+.+.+.+.",
"+.+.+.+.+.+.+.+.+.+.- - = - - > ; 2 8 k c v j l 9 3 ; - - = - - - - - - * ; 3 9 l c j c k 8 2 ; > - - - - - +.+.+.+.+.+.+.+.+.+.",
"+.+.+.+.+.+.+.+.+.+.+.+.= - - , 3 7 l c j c k 8 3 : , +.+.+.+.+.+.+.+.+.+.> 4 2 8 k c v j l 7 3 , - = = +.+.+.+.+.+.+.+.+.+.+.+.",
"+.+.+.+.+.+.+.+.+.+.+.+.+.- - 2 7 l c j j l 8 2 ; > +.+.+.+.+.+.+.+.+.+.+.+.> > : 8 l j j c l 7 2 > - +.+.+.+.+.+.+.+.+.+.+.+.+.",
"+.+.+.+.+.+.+.+.+.+.+.+.+.- > 2 7 k l l k 7 3 > - +.+.+.+.+.+.+.+.+.+.+.+.+.+.- ; 3 7 k l h k 6 4 > - +.+.+.+.+.+.+.+.+.+.+.+.+.",
"+.+.+.+.+.+.+.+.+.+.+.+.+.+.+., 3 3 3 8 8 3 4 > +.+.+.+.+.+.+.+.+.+.+.+.+.+.+.+.> 2 3 3 8 8 3 3 : +.+.+.+.+.+.+.+.+.+.+.+.+.+.+.",
"+.+.+.+.+.+.+.+.+.+.+.+.+.+.+.+., : ; , ; ; > +.+.+.+.+.+.+.+.+.+.+.+.+.+.+.+.+.+.; , ; > , , , +.+.+.+.+.+.+.+.+.+.+.+.+.+.+.+.",
"+.+.+.+.+.+.+.+.+.+.+.+.+.+.+.+.- - - - - - +.+.+.+.+.+.+.+.+.+.+.+.+.+.+.+.+.+.+.+.- - - - - - +.+.+.+.+.+.+.+.+.+.+.+.+.+.+.+.",
"+.+.+.+.+.+.+.+.+.+.+.+.+.+.+.+.+.+.= - = +.+.+.+.+.+.+.+.+.+.+.+.+.+.+.+.+.+.+.+.+.+.- = = +.+.+.+.+.+.+.+.+.+.+.+.+.+.+.+.+.+.",
"+.+.+.+.+.+.+.+.+.+.+.+.+.+.+.+.+.+.+.+.+.+.+.+.+.+.+.+.+.+.+.+.+.+.+.+.+.+.+.+.+.+.+.+.+.+.+.+.+.+.+.+.+.+.+.+.+.+.+.+.+.+.+.+.",
"+.+.+.+.+.+.+.+.+.+.+.+.+.+.+.+.+.+.+.+.+.+.+.+.+.+.+.+.+.+.+.+.+.+.+.+.+.+.+.+.+.+.+.+.+.+.+.+.+.+.+.+.+.+.+.+.+.+.+.+.+.+.+.+.",
"+.+.+.+.+.+.+.+.+.+.+.+.+.+.+.+.+.+.+.+.+.+.+.+.+.+.+.+.+.+.+.+.+.+.+.+.+.+.+.+.+.+.+.+.+.+.+.+.+.+.+.+.+.+.+.+.+.+.+.+.+.+.+.+.",
"+.+.+.+.+.+.+.+.+.+.+.+.+.+.+.+.+.+.+.+.+.+.+.+.+.+.+.+.+.+.+.+.+.+.+.+.+.+.+.+.+.+.+.+.+.+.+.+.+.+.+.+.+.+.+.+.+.+.+.+.+.+.+.+.",
"+.+.+.+.+.+.+.+.+.+.+.+.+.+.+.+.+.+.+.+.+.+.+.+.+.+.+.+.+.+.+.+.+.+.+.+.+.+.+.+.+.+.+.+.+.+.+.+.+.+.+.+.+.+.+.+.+.+.+.+.+.+.+.+.",
"+.+.+.+.+.+.+.+.+.+.+.+.+.+.+.+.+.+.+.+.+.+.+.+.+.+.+.+.+.+.+.+.+.+.+.+.+.+.+.+.+.+.+.+.+.+.+.+.+.+.+.+.+.+.+.+.+.+.+.+.+.+.+.+."
};
